<svg width="367" height="260" viewBox="0 0 367 260" fill="none" xmlns="http://www.w3.org/2000/svg">
<path d="M367 130C367 201.797 284.844 260 183.5 260C82.1557 260 0 201.797 0 130C0 58.203 82.1557 0 183.5 0C284.844 0 367 58.203 367 130ZM6.54565 130C6.54565 199.236 85.7708 255.363 183.5 255.363C281.229 255.363 360.454 199.236 360.454 130C360.454 60.7641 281.229 4.63725 183.5 4.63725C85.7708 4.63725 6.54565 60.7641 6.54565 130Z" fill="#FDFDFD"/>
<path d="M85.7255 195.455C85.7255 195.455 84.0931 76.1543 85.7255 66.4552C87.358 56.756 137.092 46.4531 178.726 66.4552V195.455C147.225 171.455 85.7255 195.455 85.7255 195.455Z" fill="#D9D9D9" stroke="black"/>
<path d="M184.726 195.455C184.726 195.455 183.093 76.1543 184.726 66.4552C186.358 56.756 236.092 46.4531 277.726 66.4552V195.455C246.225 171.455 184.726 195.455 184.726 195.455Z" fill="#D9D9D9" stroke="black"/>
<path d="M93.5961 186C93.5961 186 92.2549 83.2241 93.596 74.8684C94.9372 66.5128 135.796 57.637 170 74.8684L170 186C144.121 165.324 93.5961 186 93.5961 186Z" fill="#0F052F" stroke="black"/>
<path d="M192.596 186C192.596 186 191.255 83.2241 192.596 74.8684C193.937 66.5128 234.796 57.637 269 74.8684L269 186C243.121 165.324 192.596 186 192.596 186Z" fill="#0F052F" stroke="black"/>
<path d="M128.041 161.512C127.195 161.219 126.299 161.007 125.355 160.877C124.411 160.714 123.451 160.568 122.475 160.438C121.531 160.275 120.619 160.079 119.74 159.852C118.861 159.624 118.08 159.282 117.396 158.826C116.713 158.338 116.16 157.687 115.736 156.873C115.346 156.059 115.15 155.001 115.15 153.699V152.479L116.078 143.152C116.208 142.892 116.322 142.697 116.42 142.566C116.518 142.404 116.729 142.322 117.055 142.322C117.771 142.322 118.292 142.632 118.617 143.25C119.854 145.008 120.928 146.717 121.84 148.377C122.784 150.037 123.793 151.795 124.867 153.65C124.997 153.976 125.339 154.301 125.893 154.627C126.479 154.92 127.162 155.229 127.943 155.555C128.725 155.848 129.571 156.124 130.482 156.385C131.394 156.645 132.257 156.873 133.07 157.068C133.917 157.264 134.665 157.426 135.316 157.557C136 157.654 136.505 157.703 136.83 157.703H137.758C138.279 157.703 138.572 157.671 138.637 157.605C138.734 157.54 138.897 157.426 139.125 157.264C139.385 157.101 139.646 156.922 139.906 156.727C140.199 156.531 140.46 156.352 140.688 156.189C140.948 156.027 141.127 155.913 141.225 155.848C141.355 155.717 141.583 155.587 141.908 155.457C142.234 155.327 142.462 155.262 142.592 155.262L144.594 154.725C144.724 154.725 145.017 154.383 145.473 153.699C145.928 152.983 146.4 152.202 146.889 151.355C147.475 150.379 148.093 149.256 148.744 147.986C148.744 147.921 148.76 147.742 148.793 147.449C148.826 147.156 148.842 146.847 148.842 146.521C148.874 146.163 148.907 145.838 148.939 145.545C148.972 145.219 148.988 144.992 148.988 144.861V144.08C148.988 143.722 148.972 143.413 148.939 143.152C148.939 142.859 148.907 142.583 148.842 142.322C148.809 142.029 148.744 141.72 148.646 141.395C148.581 141.069 148.484 140.678 148.354 140.223L148.256 139.93C147.995 139.572 147.654 139.246 147.23 138.953C146.84 138.66 146.482 138.318 146.156 137.928C145.766 137.374 145.489 136.951 145.326 136.658C145.163 136.365 145.001 136.121 144.838 135.926C144.675 135.73 144.447 135.551 144.154 135.389C143.861 135.226 143.389 134.998 142.738 134.705C142.706 134.705 142.527 134.656 142.201 134.559C141.876 134.461 141.632 134.347 141.469 134.217C141.013 133.956 140.574 133.777 140.15 133.68C139.727 133.549 139.288 133.468 138.832 133.436C138.409 133.37 137.969 133.322 137.514 133.289C137.058 133.224 136.586 133.11 136.098 132.947C135.642 132.589 135.268 132.231 134.975 131.873C134.682 131.482 134.258 131.157 133.705 130.896C133.607 130.896 133.428 130.88 133.168 130.848C132.94 130.783 132.68 130.717 132.387 130.652C132.126 130.587 131.866 130.538 131.605 130.506C131.378 130.441 131.231 130.408 131.166 130.408L128.627 127.771C128.171 127.446 127.748 127.218 127.357 127.088C126.999 126.925 126.658 126.779 126.332 126.648C126.007 126.518 125.681 126.372 125.355 126.209C125.062 126.046 124.721 125.786 124.33 125.428C124.037 125.167 123.809 124.907 123.646 124.646C123.516 124.386 123.402 124.126 123.305 123.865C123.207 123.605 123.109 123.344 123.012 123.084C122.947 122.824 122.833 122.563 122.67 122.303C122.605 122.042 122.458 121.733 122.23 121.375C122.035 121.017 121.872 120.74 121.742 120.545C120.993 119.666 120.391 118.917 119.936 118.299C119.48 117.648 119.122 117.013 118.861 116.395C118.633 115.776 118.471 115.109 118.373 114.393C118.308 113.644 118.275 112.7 118.275 111.561C118.275 110.193 118.438 108.777 118.764 107.312C119.089 105.815 119.561 104.367 120.18 102.967C120.798 101.567 121.547 100.249 122.426 99.0117C123.337 97.7747 124.363 96.7168 125.502 95.8379C125.827 95.5124 126.186 95.2845 126.576 95.1543C126.999 94.9915 127.423 94.8776 127.846 94.8125C128.301 94.7474 128.757 94.7148 129.213 94.7148C129.669 94.6823 130.108 94.6172 130.531 94.5195C130.954 94.4219 131.345 94.2754 131.703 94.0801C132.094 93.8848 132.468 93.6895 132.826 93.4941C133.217 93.2663 133.607 93.071 133.998 92.9082C134.421 92.7454 134.861 92.6641 135.316 92.6641C136.716 92.6641 138.035 92.7454 139.271 92.9082C140.541 93.071 141.794 93.2988 143.031 93.5918C143.878 93.7871 144.643 94.0475 145.326 94.373C146.042 94.6986 146.84 94.8613 147.719 94.8613C148.337 94.8613 148.891 94.6823 149.379 94.3242C149.9 93.9661 150.404 93.5755 150.893 93.1523C151.381 92.6966 151.885 92.2897 152.406 91.9316C152.96 91.5736 153.578 91.3945 154.262 91.3945C154.88 91.3945 155.287 91.6875 155.482 92.2734C155.678 92.8594 155.775 93.4128 155.775 93.9336L154.848 97.1074L155.238 102.869V104.139C155.238 105.018 155.206 105.766 155.141 106.385C155.108 106.971 154.978 107.719 154.75 108.631C154.685 108.794 154.571 108.94 154.408 109.07C154.278 109.201 154.164 109.266 154.066 109.266C154.066 109.331 153.952 109.363 153.725 109.363C153.562 109.363 153.301 109.152 152.943 108.729C152.618 108.305 152.211 107.768 151.723 107.117C151.267 106.466 150.779 105.75 150.258 104.969C149.737 104.188 149.216 103.439 148.695 102.723C148.174 101.974 147.67 101.307 147.182 100.721C146.726 100.135 146.319 99.7279 145.961 99.5C145.31 99.0768 144.594 98.735 143.812 98.4746C143.031 98.1816 142.217 97.9701 141.371 97.8398C140.525 97.6771 139.678 97.5632 138.832 97.498C137.986 97.4329 137.204 97.4004 136.488 97.4004C135.414 97.4004 134.486 97.498 133.705 97.6934C132.924 97.8887 132.24 98.1979 131.654 98.6211C131.068 99.0443 130.548 99.5977 130.092 100.281C129.636 100.932 129.213 101.714 128.822 102.625C128.497 103.341 128.22 103.911 127.992 104.334C127.797 104.757 127.618 105.148 127.455 105.506C127.325 105.864 127.227 106.255 127.162 106.678C127.097 107.068 127.064 107.605 127.064 108.289C127.064 110.014 127.357 111.512 127.943 112.781C128.529 114.051 129.311 115.158 130.287 116.102C131.264 117.013 132.403 117.778 133.705 118.396C135.007 118.982 136.391 119.487 137.855 119.91L138.344 120.252C139.125 120.74 139.809 121.163 140.395 121.521C141.013 121.847 141.599 122.156 142.152 122.449C142.706 122.71 143.275 122.97 143.861 123.23C144.48 123.491 145.18 123.8 145.961 124.158L151.625 127.771C151.69 127.804 151.755 127.869 151.82 127.967C151.918 128.032 152.016 128.097 152.113 128.162C152.243 128.26 152.357 128.357 152.455 128.455L153.334 130.896C153.464 131.124 153.578 131.385 153.676 131.678C153.806 131.938 153.936 132.133 154.066 132.264C154.164 132.329 154.327 132.492 154.555 132.752C154.783 133.012 155.01 133.305 155.238 133.631C155.499 133.924 155.71 134.217 155.873 134.51C156.068 134.77 156.166 134.949 156.166 135.047C156.264 135.242 156.378 135.535 156.508 135.926C156.671 136.284 156.817 136.658 156.947 137.049C157.11 137.439 157.24 137.814 157.338 138.172C157.468 138.53 157.533 138.79 157.533 138.953V146.131C157.533 146.163 157.452 146.375 157.289 146.766C157.159 147.156 157.012 147.482 156.85 147.742C156.752 147.775 156.671 147.856 156.605 147.986C156.573 148.051 156.54 148.133 156.508 148.23C156.475 148.328 156.394 148.54 156.264 148.865C156.166 149.191 156.052 149.549 155.922 149.939C155.792 150.33 155.661 150.688 155.531 151.014C155.401 151.339 155.303 151.535 155.238 151.6C155.141 151.893 154.962 152.202 154.701 152.527C154.473 152.853 154.213 153.162 153.92 153.455C153.627 153.748 153.334 154.008 153.041 154.236C152.781 154.464 152.585 154.627 152.455 154.725C152.162 155.115 151.999 155.538 151.967 155.994C151.934 156.45 151.739 156.792 151.381 157.02C150.111 157.475 149.07 157.996 148.256 158.582C147.442 159.135 146.661 159.673 145.912 160.193C145.196 160.682 144.431 161.105 143.617 161.463C142.803 161.821 141.778 162 140.541 162H139.955C139.076 161.935 138.49 161.902 138.197 161.902C137.937 161.87 137.742 161.854 137.611 161.854L128.041 161.512Z" fill="white"/>
<path d="M196.199 160.389V160.145C196.297 160.047 196.557 159.917 196.98 159.754C197.404 159.559 197.908 159.363 198.494 159.168C199.08 158.973 199.699 158.777 200.35 158.582C201.001 158.387 201.619 158.208 202.205 158.045C202.791 157.882 203.279 157.736 203.67 157.605C204.093 157.475 204.337 157.394 204.402 157.361C204.988 156.548 205.428 155.717 205.721 154.871C206.014 153.992 206.225 153.113 206.355 152.234C206.486 151.323 206.567 150.411 206.6 149.5C206.665 148.556 206.746 147.596 206.844 146.619C207.072 145.87 207.251 145.154 207.381 144.471C207.544 143.787 207.625 143.071 207.625 142.322C207.625 141.769 207.495 141.281 207.234 140.857C206.974 140.434 206.844 139.962 206.844 139.441C206.844 138.595 206.974 137.749 207.234 136.902C207.495 136.023 207.625 135.21 207.625 134.461C207.625 134.201 207.609 133.989 207.576 133.826C207.544 133.631 207.495 133.452 207.43 133.289C207.397 133.126 207.365 132.964 207.332 132.801C207.299 132.638 207.283 132.426 207.283 132.166C207.283 131.84 207.316 131.564 207.381 131.336C207.479 131.076 207.576 130.848 207.674 130.652C207.804 130.424 207.902 130.213 207.967 130.018C208.064 129.79 208.113 129.546 208.113 129.285L206.844 124.305C206.844 123.816 206.974 123.41 207.234 123.084C207.495 122.726 207.625 122.27 207.625 121.717L207.283 120.252V117.127C207.283 117.029 207.251 116.899 207.186 116.736C207.12 116.541 207.039 116.346 206.941 116.15C206.844 115.955 206.762 115.776 206.697 115.613C206.632 115.451 206.6 115.337 206.6 115.271C206.6 114.425 206.681 113.676 206.844 113.025C207.007 112.374 207.088 111.723 207.088 111.072L206.844 103.309C206.681 102.983 206.502 102.723 206.307 102.527C206.111 102.332 205.9 102.169 205.672 102.039C205.444 101.909 205.184 101.779 204.891 101.648C204.63 101.486 204.354 101.274 204.061 101.014C203.507 100.2 202.775 99.6465 201.863 99.3535C200.952 99.0605 200.057 98.8327 199.178 98.6699C198.299 98.4746 197.534 98.2305 196.883 97.9375C196.264 97.6445 195.955 97.0911 195.955 96.2773C195.955 95.6914 196.183 95.252 196.639 94.959C197.127 94.6335 197.697 94.4056 198.348 94.2754C198.999 94.1126 199.65 94.015 200.301 93.9824C200.952 93.9499 201.473 93.9336 201.863 93.9336H203.621C204.207 93.9336 204.842 93.9499 205.525 93.9824C206.209 93.9824 206.844 94.015 207.43 94.0801C208.048 94.1126 208.569 94.1777 208.992 94.2754C209.415 94.3405 209.66 94.4219 209.725 94.5195L225.496 93.9336L229.5 94.1777L231.502 93.9336C232.674 94.4219 233.829 94.8125 234.969 95.1055C236.108 95.3984 237.199 95.7402 238.24 96.1309C239.314 96.5215 240.324 97.026 241.268 97.6445C242.244 98.2305 243.123 99.0768 243.904 100.184C244.62 101.225 245.223 102.137 245.711 102.918C246.232 103.667 246.655 104.432 246.98 105.213C247.306 105.962 247.534 106.775 247.664 107.654C247.827 108.533 247.908 109.591 247.908 110.828C247.908 111.772 247.794 112.83 247.566 114.002C247.339 115.141 246.997 116.183 246.541 117.127C246.183 117.68 245.809 118.136 245.418 118.494C245.06 118.852 244.669 119.178 244.246 119.471C243.823 119.764 243.367 120.04 242.879 120.301C242.423 120.561 241.935 120.854 241.414 121.18L240.877 122.205C240.649 122.498 240.226 122.71 239.607 122.84C239.021 122.97 238.419 123.117 237.801 123.279C237.182 123.442 236.629 123.67 236.141 123.963C235.652 124.256 235.408 124.712 235.408 125.33C235.408 125.623 235.701 125.883 236.287 126.111C236.873 126.339 237.54 126.551 238.289 126.746C239.07 126.941 239.819 127.12 240.535 127.283C241.284 127.446 241.821 127.592 242.146 127.723C243.09 128.211 243.921 128.715 244.637 129.236C245.385 129.725 246.183 130.229 247.029 130.75L248.641 131.824C249.096 132.703 249.633 133.598 250.252 134.51C250.87 135.421 251.456 136.365 252.01 137.342C252.596 138.286 253.084 139.279 253.475 140.32C253.865 141.329 254.061 142.387 254.061 143.494C254.061 144.699 254.012 145.838 253.914 146.912C253.849 147.986 253.589 148.93 253.133 149.744C252.97 150.037 252.661 150.46 252.205 151.014C251.749 151.535 251.212 152.137 250.594 152.82C250.008 153.471 249.357 154.155 248.641 154.871C247.957 155.587 247.29 156.255 246.639 156.873C245.988 157.459 245.369 157.98 244.783 158.436C244.23 158.859 243.774 159.119 243.416 159.217C242.277 159.217 241.495 159.298 241.072 159.461C240.649 159.591 240.356 159.656 240.193 159.656C238.468 160.21 236.906 160.665 235.506 161.023C234.106 161.382 232.544 161.626 230.818 161.756L228.621 162.488C227.742 162.163 226.847 162 225.936 162C224.829 162 223.836 162.163 222.957 162.488C221.069 162.326 219.214 162.179 217.391 162.049C215.568 161.919 213.663 161.854 211.678 161.854C210.115 161.854 208.52 162 206.893 162.293C205.298 162.618 203.621 162.781 201.863 162.781C201.701 162.781 201.31 162.732 200.691 162.635C200.105 162.57 199.471 162.439 198.787 162.244C198.136 162.049 197.534 161.805 196.98 161.512C196.46 161.186 196.199 160.812 196.199 160.389ZM216.658 147.205L217.342 149.5C217.439 150.77 217.505 151.762 217.537 152.479C217.57 153.162 217.651 153.715 217.781 154.139C217.944 154.529 218.221 154.871 218.611 155.164C219.002 155.424 219.62 155.766 220.467 156.189C220.792 156.352 221.053 156.499 221.248 156.629C221.443 156.759 221.655 156.889 221.883 157.02C222.566 157.312 223.217 157.654 223.836 158.045C224.487 158.436 225.236 158.631 226.082 158.631C226.701 158.631 227.189 158.533 227.547 158.338C227.938 158.143 228.393 158.045 228.914 158.045L231.16 158.289C231.551 158.289 231.974 158.191 232.43 157.996C232.918 157.801 233.39 157.557 233.846 157.264C234.301 156.971 234.725 156.661 235.115 156.336C235.538 156.01 235.88 155.701 236.141 155.408C236.303 155.343 236.531 155.18 236.824 154.92C237.15 154.627 237.475 154.318 237.801 153.992C238.126 153.667 238.419 153.357 238.68 153.064C238.973 152.739 239.201 152.511 239.363 152.381C239.493 151.925 239.689 151.486 239.949 151.062C240.242 150.639 240.503 150.216 240.73 149.793C240.991 149.337 241.219 148.882 241.414 148.426C241.609 147.938 241.707 147.417 241.707 146.863C241.707 145.431 241.642 143.999 241.512 142.566C241.414 141.102 241.186 139.702 240.828 138.367C240.47 137 239.949 135.714 239.266 134.51C238.615 133.273 237.719 132.182 236.58 131.238C235.538 130.49 234.513 129.887 233.504 129.432C232.527 128.943 231.404 128.618 230.135 128.455H227.645C226.31 128.325 225.105 128.13 224.031 127.869C222.957 127.576 221.867 127.43 220.76 127.43L217.928 127.723C217.863 127.853 217.765 128.048 217.635 128.309C217.537 128.536 217.423 128.797 217.293 129.09C217.195 129.35 217.081 129.594 216.951 129.822C216.854 130.05 216.756 130.213 216.658 130.311C216.658 130.831 216.707 131.255 216.805 131.58C216.935 131.873 217 132.215 217 132.605L216.316 139.441C216.316 140.32 216.43 141.264 216.658 142.273C216.886 143.283 217 144.34 217 145.447L216.658 147.205ZM217.635 124.842L218.27 125.672L221.053 124.744C222.192 124.614 223.38 124.5 224.617 124.402C225.887 124.305 227.107 124.256 228.279 124.256C228.898 124.256 229.321 124.256 229.549 124.256C229.777 124.256 229.972 124.272 230.135 124.305C231.079 123.523 231.925 122.645 232.674 121.668C233.455 120.659 234.139 119.617 234.725 118.543C235.343 117.469 235.896 116.362 236.385 115.223C236.873 114.083 237.329 112.977 237.752 111.902V111.072L237.068 109.803C236.743 108.631 236.336 107.459 235.848 106.287C235.359 105.115 234.741 104.041 233.992 103.064C233.276 102.088 232.413 101.274 231.404 100.623C230.428 99.9395 229.272 99.5326 227.938 99.4023C227.872 99.4023 227.726 99.3861 227.498 99.3535C227.303 99.321 227.091 99.3047 226.863 99.3047C226.635 99.2721 226.424 99.2396 226.229 99.207C226.033 99.1745 225.903 99.1582 225.838 99.1582C225.415 99.0931 225.008 98.9629 224.617 98.7676C224.259 98.5723 223.901 98.3607 223.543 98.1328C223.185 97.9049 222.794 97.7096 222.371 97.5469C221.98 97.3841 221.557 97.3027 221.102 97.3027C220.874 97.3027 220.532 97.4167 220.076 97.6445C219.653 97.8724 219.214 98.1654 218.758 98.5234C218.335 98.849 217.944 99.1908 217.586 99.5488C217.26 99.9069 217.065 100.232 217 100.525V102.527L217.342 106.434C217.342 106.954 217.277 107.508 217.146 108.094C217.049 108.647 216.935 109.217 216.805 109.803C216.707 110.356 216.593 110.91 216.463 111.463C216.365 111.984 216.316 112.472 216.316 112.928C216.316 115.044 216.495 117.094 216.854 119.08C217.212 121.066 217.472 122.986 217.635 124.842Z" fill="white"/>
</svg>
